<?xml version="1.0" standalone="no"?>
<!DOCTYPE svg PUBLIC "-//W3C//DTD SVG 20010904//EN"
 "http://www.w3.org/TR/2001/REC-SVG-20010904/DTD/svg10.dtd">
<svg version="1.0" xmlns="http://www.w3.org/2000/svg"
 width="196.000000pt" height="196.000000pt" viewBox="0 0 196.000000 196.000000"
 preserveAspectRatio="xMidYMid meet">

<g transform="translate(0.000000,196.000000) scale(0.100000,-0.100000)"
fill="#000000" stroke="none">
<path d="M820 1467 c-23 -12 -25 -19 -28 -92 -4 -103 1 -121 38 -133 30 -11
36 -25 24 -56 -4 -11 -19 -16 -48 -16 -51 0 -59 -8 -146 -143 -67 -104 -82
-117 -170 -137 -87 -20 -90 -24 -90 -160 0 -77 4 -120 12 -128 7 -7 33 -12 59
-12 43 0 49 -3 69 -35 56 -90 185 -90 238 0 l21 35 150 0 149 0 20 -34 c28
-48 63 -68 118 -68 53 0 87 21 119 70 20 31 21 31 101 32 57 0 85 4 93 14 8 9
11 60 9 157 l-3 144 -30 8 c-16 5 -41 12 -54 15 -17 5 -41 38 -85 114 -34 59
-65 110 -69 114 -4 4 -24 10 -44 13 -32 5 -38 11 -41 34 -3 21 2 29 22 37 36
13 46 40 46 122 0 117 10 113 -242 116 -159 2 -219 -1 -238 -11z m97 -59 c4
-7 8 -37 9 -65 2 -60 -18 -73 -38 -25 l-12 27 -4 -28 c-2 -20 -8 -27 -20 -25
-13 3 -18 17 -20 66 l-3 62 40 0 c22 0 43 -6 48 -12z m178 -17 l14 -26 1 28 0
27 75 0 c48 0 75 -4 75 -11 0 -6 -9 -13 -20 -16 -17 -4 -20 -14 -20 -55 0 -42
-3 -49 -17 -46 -14 2 -19 15 -21 51 -4 65 -30 65 -34 0 -4 -61 -28 -70 -55
-21 l-18 33 -3 -32 c-2 -21 -9 -33 -18 -33 -8 0 -14 5 -14 12 0 9 -3 9 -12 0
-7 -7 -29 -12 -50 -12 l-38 0 0 65 0 65 70 -2 c65 -1 72 -3 85 -27z m90 -186
l0 -30 -140 0 -140 0 -3 33 -3 33 143 -3 143 -3 0 -30z m-187 -197 l3 -108
-148 0 c-81 0 -154 4 -162 9 -11 7 -5 25 33 89 69 118 75 122 191 119 l80 -2
3 -107z m271 87 c30 -32 94 -163 87 -180 -5 -13 -26 -15 -138 -13 l-133 3 -3
94 c-1 52 0 101 3 109 9 23 159 13 184 -13z m-556 -427 c39 -45 5 -118 -55
-118 -79 0 -94 115 -18 143 23 8 53 -2 73 -25z m556 17 c46 -23 54 -66 20
-109 -27 -34 -71 -35 -104 -1 -14 13 -25 32 -25 42 0 33 39 74 78 82 2 1 16
-6 31 -14z"/>
<path d="M870 1380 c0 -5 5 -10 10 -10 6 0 10 5 10 10 0 6 -4 10 -10 10 -5 0
-10 -4 -10 -10z"/>
<path d="M1000 1391 c-25 -7 -25 -7 -2 -13 28 -8 30 -38 2 -38 -11 0 -20 -4
-20 -10 0 -5 11 -10 25 -10 23 0 25 4 25 40 0 22 -1 40 -2 39 -2 -1 -14 -4
-28 -8z"/>
</g>
</svg>
